<?xml version="1.0" standalone="yes"?>

<svg version="1.1" viewBox="0.0 0.0 430.0 178.0" fill="none" stroke="none" stroke-linecap="square" stroke-miterlimit="10" xmlns="http://www.w3.org/2000/svg" xmlns:xlink="http://www.w3.org/1999/xlink"><clipPath id="p.0"><path d="m0 0l430.0 0l0 178.0l-430.0 0l0 -178.0z" clip-rule="nonzero"></path></clipPath><g clip-path="url(#p.0)"><path fill="#000000" fill-opacity="0.0" d="m0 0l430.45407 0l0 178.3307l-430.45407 0z" fill-rule="nonzero"></path><path fill="#000000" d="m9.860892 155.4567l0 0c0 -6.5317535 6.1129 -11.826767 13.6535425 -11.826767l0 0c7.5406437 0 13.653545 5.2950134 13.653545 11.826767l0 0c0 6.5317383 -6.1129017 11.826767 -13.653545 11.826767l0 0c-7.5406427 0 -13.6535425 -5.2950287 -13.6535425 -11.826767z" fill-rule="nonzero"></path><path stroke="#000000" stroke-width="2.0" stroke-linejoin="round" stroke-linecap="butt" d="m9.860892 155.4567l0 0c0 -6.5317535 6.1129 -11.826767 13.6535425 -11.826767l0 0c7.5406437 0 13.653545 5.2950134 13.653545 11.826767l0 0c0 6.5317383 -6.1129017 11.826767 -13.653545 11.826767l0 0c-7.5406427 0 -13.6535425 -5.2950287 -13.6535425 -11.826767z" fill-rule="nonzero"></path><path fill="#000000" fill-opacity="0.0" d="m25.71916 6.7795277l-2.2047253 136.8504" fill-rule="nonzero"></path><path stroke="#000000" stroke-width="8.0" stroke-linejoin="round" stroke-linecap="butt" d="m25.71916 6.7795277l-1.7630844 109.437256" fill-rule="evenodd"></path><path fill="#000000" stroke="#000000" stroke-width="8.0" stroke-linecap="butt" d="m23.956074 116.21679l-8.850579 -9.140427l8.597333 24.859856l9.393669 -24.570015z" fill-rule="evenodd"></path><path fill="#000000" fill-opacity="0.0" d="m37.16798 155.4567l79.74803 0.06298828" fill-rule="nonzero"></path><path stroke="#000000" stroke-width="8.0" stroke-linejoin="round" stroke-linecap="butt" d="m37.16798 155.4567l52.33134 0.04133606" fill-rule="evenodd"></path><path fill="#000000" stroke="#000000" stroke-width="8.0" stroke-linecap="butt" d="m89.49933 155.49803l-9.003777 8.989563l24.725243 -8.977142l-24.71103 -9.01619z" fill-rule="evenodd"></path><path fill="#000000" fill-opacity="0.0" d="m116.91535 106.78215l0 0c0 -27.614235 14.665321 -49.999996 32.755913 -49.999996l0 0c8.687408 0 17.018997 5.2678413 23.161911 14.644657c6.142929 9.376823 9.593994 22.094513 9.593994 35.35534l0 0c0 27.614243 -14.665329 50.0 -32.755905 50.0l0 0c-18.090591 0 -32.755913 -22.385757 -32.755913 -50.0z" fill-rule="nonzero"></path><path stroke="#000000" stroke-width="8.0" stroke-linejoin="round" stroke-linecap="butt" d="m116.91535 106.78215l0 0c0 -27.614235 14.665321 -49.999996 32.755913 -49.999996l0 0c8.687408 0 17.018997 5.2678413 23.161911 14.644657c6.142929 9.376823 9.593994 22.094513 9.593994 35.35534l0 0c0 27.614243 -14.665329 50.0 -32.755905 50.0l0 0c-18.090591 0 -32.755913 -22.385757 -32.755913 -50.0z" fill-rule="nonzero"></path><path fill="#000000" fill-opacity="0.0" d="m190.92848 106.78215l0 0c0 -27.614235 14.665314 -49.999996 32.755905 -49.999996l0 0c8.687408 0 17.018997 5.2678413 23.161926 14.644657c6.142914 9.376823 9.593964 22.094513 9.593964 35.35534l0 0c0 27.614243 -14.665314 50.0 -32.75589 50.0l0 0c-18.090591 0 -32.755905 -22.385757 -32.755905 -50.0z" fill-rule="nonzero"></path><path stroke="#000000" stroke-width="8.0" stroke-linejoin="round" stroke-linecap="butt" d="m190.92848 106.78215l0 0c0 -27.614235 14.665314 -49.999996 32.755905 -49.999996l0 0c8.687408 0 17.018997 5.2678413 23.161926 14.644657c6.142914 9.376823 9.593964 22.094513 9.593964 35.35534l0 0c0 27.614243 -14.665314 50.0 -32.75589 50.0l0 0c-18.090591 0 -32.755905 -22.385757 -32.755905 -50.0z" fill-rule="nonzero"></path><path fill="#000000" d="m300.45425 84.73096q9.824188 -9.644371 11.59256 -11.091026q4.4208984 -3.6648636 9.52948 -5.6901855q5.1085815 -2.0253143 10.118927 -2.0253143q8.448822 0 14.539825 4.8221817q6.0910034 4.8221893 8.154083 13.9843445q10.1189575 -11.57325 17.094147 -15.173813q6.9751587 -3.6327133 14.343323 -3.6327133q7.1716614 0 12.705963 3.6327133q5.5670776 3.600563 8.8090515 11.798286q2.161316 5.5937347 2.161316 17.552757l0 37.99884q0 8.294159 1.2771606 11.380371q0.9824219 2.1217499 3.6349487 3.6327057q2.6525269 1.4788055 8.645294 1.4788055l0 3.4719696l-44.405396 0l0 -3.4719696l1.8666077 0q5.7962646 0 9.038269 -2.2182007q2.259552 -1.5431061 3.2419739 -4.91864q0.39297485 -1.6395416 0.39297485 -9.3550415l0 -37.99884q0 -10.801697 -2.6525269 -15.238113q-3.8314514 -6.172394 -12.280273 -6.172394q-5.2068176 0 -10.4791565 2.5718307q-5.239563 2.539688 -12.705963 9.483635l-0.19650269 1.0608826l0.19650269 4.1470795l0 42.14592q0 9.06572 1.0151672 11.28392q1.0479126 2.2182007 3.8969421 3.7291565q2.848999 1.4788055 9.725952 1.4788055l0 3.4719696l-45.486084 0l0 -3.4719696q7.4664 0 10.249939 -1.7359924q2.8162537 -1.7359772 3.8969116 -5.207962q0.49121094 -1.6395416 0.49121094 -9.547928l0 -37.99884q0 -10.801697 -3.2419739 -15.527443q-4.3226624 -6.1724014 -12.083771 -6.1724014q-5.305084 0 -10.511902 2.796875q-8.154083 4.2435226 -12.574982 9.547928l0 47.35388q0 8.679932 1.2116394 11.28392q1.2444153 2.6039734 3.6349792 3.9220428q2.4232788 1.2859192 9.791443 1.2859192l0 3.4719696l-44.503662 0l0 -3.4719696q6.18927 0 8.645325 -1.2859192q2.4560242 -1.3180695 3.7331848 -4.1470795q1.2771606 -2.8611603 1.2771606 -11.058884l0 -33.75531q0 -14.563011 -0.8841858 -18.806534q-0.6877136 -3.18264 -2.1613464 -4.372116q-1.4736023 -1.2216187 -4.0279236 -1.2216187q-2.750763 0 -6.5822144 1.4466553l-1.4736328 -3.4719772l27.114807 -10.801697l4.2244263 0l0 18.806526z" fill-rule="nonzero"></path><path stroke="#000000" stroke-width="2.0" stroke-linejoin="round" stroke-linecap="butt" d="m300.45425 84.73096q9.824188 -9.644371 11.59256 -11.091026q4.4208984 -3.6648636 9.52948 -5.6901855q5.1085815 -2.0253143 10.118927 -2.0253143q8.448822 0 14.539825 4.8221817q6.0910034 4.8221893 8.154083 13.9843445q10.1189575 -11.57325 17.094147 -15.173813q6.9751587 -3.6327133 14.343323 -3.6327133q7.1716614 0 12.705963 3.6327133q5.5670776 3.600563 8.8090515 11.798286q2.161316 5.5937347 2.161316 17.552757l0 37.99884q0 8.294159 1.2771606 11.380371q0.9824219 2.1217499 3.6349487 3.6327057q2.6525269 1.4788055 8.645294 1.4788055l0 3.4719696l-44.405396 0l0 -3.4719696l1.8666077 0q5.7962646 0 9.038269 -2.2182007q2.259552 -1.5431061 3.2419739 -4.91864q0.39297485 -1.6395416 0.39297485 -9.3550415l0 -37.99884q0 -10.801697 -2.6525269 -15.238113q-3.8314514 -6.172394 -12.280273 -6.172394q-5.2068176 0 -10.4791565 2.5718307q-5.239563 2.539688 -12.705963 9.483635l-0.19650269 1.0608826l0.19650269 4.1470795l0 42.14592q0 9.06572 1.0151672 11.28392q1.0479126 2.2182007 3.8969421 3.7291565q2.848999 1.4788055 9.725952 1.4788055l0 3.4719696l-45.486084 0l0 -3.4719696q7.4664 0 10.249939 -1.7359924q2.8162537 -1.7359772 3.8969116 -5.207962q0.49121094 -1.6395416 0.49121094 -9.547928l0 -37.99884q0 -10.801697 -3.2419739 -15.527443q-4.3226624 -6.1724014 -12.083771 -6.1724014q-5.305084 0 -10.511902 2.796875q-8.154083 4.2435226 -12.574982 9.547928l0 47.35388q0 8.679932 1.2116394 11.28392q1.2444153 2.6039734 3.6349792 3.9220428q2.4232788 1.2859192 9.791443 1.2859192l0 3.4719696l-44.503662 0l0 -3.4719696q6.18927 0 8.645325 -1.2859192q2.4560242 -1.3180695 3.7331848 -4.1470795q1.2771606 -2.8611603 1.2771606 -11.058884l0 -33.75531q0 -14.563011 -0.8841858 -18.806534q-0.6877136 -3.18264 -2.1613464 -4.372116q-1.4736023 -1.2216187 -4.0279236 -1.2216187q-2.750763 0 -6.5822144 1.4466553l-1.4736328 -3.4719772l27.114807 -10.801697l4.2244263 0l0 18.806526z" fill-rule="nonzero"></path><path fill="#000000" fill-opacity="0.0" d="m160.89578 59.818726l-44.220474 36.25197" fill-rule="nonzero"></path><path stroke="#000000" stroke-width="1.0" stroke-linejoin="round" stroke-linecap="butt" d="m160.89578 59.818726l-44.220474 36.25197" fill-rule="nonzero"></path><path fill="#000000" fill-opacity="0.0" d="m166.88226 68.322624l-52.472443 45.385826" fill-rule="nonzero"></path><path stroke="#000000" stroke-width="1.0" stroke-linejoin="round" stroke-linecap="butt" d="m166.88226 68.322624l-52.472443 45.385826" fill-rule="nonzero"></path><path fill="#000000" fill-opacity="0.0" d="m131.91536 62.280838l46.992126 56.031494" fill-rule="nonzero"></path><path stroke="#000000" stroke-width="1.0" stroke-linejoin="round" stroke-linecap="butt" d="m131.91536 62.280838l46.992126 56.031494" fill-rule="nonzero"></path><path fill="#000000" fill-opacity="0.0" d="m125.91535 78.28084l46.488197 56.0" fill-rule="nonzero"></path><path stroke="#000000" stroke-width="1.0" stroke-linejoin="round" stroke-linecap="butt" d="m125.91535 78.28084l46.488197 56.0" fill-rule="nonzero"></path><path fill="#000000" d="m139.51733 75.20473l0 0c0 -1.0610886 0.719162 -1.9212646 1.6062927 -1.9212646l0 0c0.4260254 0 0.8345947 0.2024231 1.1358337 0.5627289c0.301239 0.3603058 0.47047424 0.84898376 0.47047424 1.3585358l0 0c0 1.0610809 -0.719162 1.921257 -1.606308 1.921257l0 0c-0.88713074 0 -1.6062927 -0.8601761 -1.6062927 -1.921257z" fill-rule="nonzero"></path><path stroke="#000000" stroke-width="2.0" stroke-linejoin="round" stroke-linecap="butt" d="m139.51733 75.20473l0 0c0 -1.0610886 0.719162 -1.9212646 1.6062927 -1.9212646l0 0c0.4260254 0 0.8345947 0.2024231 1.1358337 0.5627289c0.301239 0.3603058 0.47047424 0.84898376 0.47047424 1.3585358l0 0c0 1.0610809 -0.719162 1.921257 -1.606308 1.921257l0 0c-0.88713074 0 -1.6062927 -0.8601761 -1.6062927 -1.921257z" fill-rule="nonzero"></path><path fill="#000000" d="m147.58464 82.90551l0 0c0 -1.0349884 0.70506287 -1.8740158 1.5748138 -1.8740158l0 0c0.41766357 0 0.81822205 0.1974411 1.1135559 0.54888916c0.2953186 0.35144806 0.46124268 0.82810974 0.46124268 1.3251266l0 0c0 1.0349884 -0.70506287 1.8740158 -1.5747986 1.8740158l0 0c-0.869751 0 -1.5748138 -0.8390274 -1.5748138 -1.8740158z" fill-rule="nonzero"></path><path stroke="#000000" stroke-width="2.0" stroke-linejoin="round" stroke-linecap="butt" d="m147.58464 82.90551l0 0c0 -1.0349884 0.70506287 -1.8740158 1.5748138 -1.8740158l0 0c0.41766357 0 0.81822205 0.1974411 1.1135559 0.54888916c0.2953186 0.35144806 0.46124268 0.82810974 0.46124268 1.3251266l0 0c0 1.0349884 -0.70506287 1.8740158 -1.5747986 1.8740158l0 0c-0.869751 0 -1.5748138 -0.8390274 -1.5748138 -1.8740158z" fill-rule="nonzero"></path><path fill="#000000" d="m128.70276 84.25886l0 0c0 -1.0610809 0.719162 -1.921257 1.6062927 -1.921257l0 0c0.4260254 0 0.8345947 0.20241547 1.1358337 0.56272125c0.301239 0.3603058 0.47047424 0.84898376 0.47047424 1.3585358l0 0c0 1.0610809 -0.71917725 1.921257 -1.606308 1.921257l0 0c-0.88713074 0 -1.6062927 -0.8601761 -1.6062927 -1.921257z" fill-rule="nonzero"></path><path stroke="#000000" stroke-width="2.0" stroke-linejoin="round" stroke-linecap="butt" d="m128.70276 84.25886l0 0c0 -1.0610809 0.719162 -1.921257 1.6062927 -1.921257l0 0c0.4260254 0 0.8345947 0.20241547 1.1358337 0.56272125c0.301239 0.3603058 0.47047424 0.84898376 0.47047424 1.3585358l0 0c0 1.0610809 -0.71917725 1.921257 -1.606308 1.921257l0 0c-0.88713074 0 -1.6062927 -0.8601761 -1.6062927 -1.921257z" fill-rule="nonzero"></path><path fill="#000000" d="m136.36772 92.85329l0 0c0 -1.0349884 0.70506287 -1.8740158 1.5748138 -1.8740158l0 0c0.41766357 0 0.81822205 0.1974411 1.1135559 0.54888916c0.2953186 0.35144806 0.46124268 0.82810974 0.46124268 1.3251266l0 0c0 1.034996 -0.70506287 1.8740158 -1.5747986 1.8740158l0 0c-0.869751 0 -1.5748138 -0.8390198 -1.5748138 -1.8740158z" fill-rule="nonzero"></path><path stroke="#000000" stroke-width="2.0" stroke-linejoin="round" stroke-linecap="butt" d="m136.36772 92.85329l0 0c0 -1.0349884 0.70506287 -1.8740158 1.5748138 -1.8740158l0 0c0.41766357 0 0.81822205 0.1974411 1.1135559 0.54888916c0.2953186 0.35144806 0.46124268 0.82810974 0.46124268 1.3251266l0 0c0 1.034996 -0.70506287 1.8740158 -1.5747986 1.8740158l0 0c-0.869751 0 -1.5748138 -0.8390198 -1.5748138 -1.8740158z" fill-rule="nonzero"></path><path fill="#000000" fill-opacity="0.0" d="m238.66602 67.78215l-47.74803 47.74803" fill-rule="nonzero"></path><path stroke="#000000" stroke-width="1.0" stroke-linejoin="round" stroke-linecap="butt" d="m238.66602 67.78215l-47.74803 47.74803" fill-rule="nonzero"></path><path fill="#000000" fill-opacity="0.0" d="m193.68832 129.85329l51.716537 -53.5748" fill-rule="nonzero"></path><path stroke="#000000" stroke-width="1.0" stroke-linejoin="round" stroke-linecap="butt" d="m193.68832 129.85329l51.716537 -53.5748" fill-rule="nonzero"></path><path fill="#000000" fill-opacity="0.0" d="m250.66602 85.28084l-53.480316 56.0" fill-rule="nonzero"></path><path stroke="#000000" stroke-width="1.0" stroke-linejoin="round" stroke-linecap="butt" d="m250.66602 85.28084l-53.480316 56.0" fill-rule="nonzero"></path><path fill="#000000" fill-opacity="0.0" d="m198.91536 81.031494l53.984253 14.236221" fill-rule="nonzero"></path><path stroke="#000000" stroke-width="1.0" stroke-linejoin="round" stroke-linecap="butt" d="m198.91536 81.031494l53.984253 14.236221" fill-rule="nonzero"></path><path fill="#000000" fill-opacity="0.0" d="m193.91536 92.28084l60.503937 13.79528" fill-rule="nonzero"></path><path stroke="#000000" stroke-width="1.0" stroke-linejoin="round" stroke-linecap="butt" d="m193.91536 92.28084l60.503937 13.79528" fill-rule="nonzero"></path><path fill="#000000" fill-opacity="0.0" d="m194.41667 103.031494l64.25197 14.078743" fill-rule="nonzero"></path><path stroke="#000000" stroke-width="1.0" stroke-linejoin="round" stroke-linecap="butt" d="m194.41667 103.031494l64.25197 14.078743" fill-rule="nonzero"></path><path fill="#000000" d="m219.06102 87.105255l0 0c0 -1.2437286 0.66981506 -2.2519684 1.4960632 -2.2519684l0 0c0.39678955 0 0.77731323 0.23725891 1.0578766 0.6595917c0.28056335 0.42232513 0.43818665 0.9951172 0.43818665 1.5923767l0 0c0 1.2437286 -0.6697998 2.2519684 -1.4960632 2.2519684l0 0c-0.82624817 0 -1.4960632 -1.0082397 -1.4960632 -2.2519684z" fill-rule="nonzero"></path><path stroke="#000000" stroke-width="2.0" stroke-linejoin="round" stroke-linecap="butt" d="m219.06102 87.105255l0 0c0 -1.2437286 0.66981506 -2.2519684 1.4960632 -2.2519684l0 0c0.39678955 0 0.77731323 0.23725891 1.0578766 0.6595917c0.28056335 0.42232513 0.43818665 0.9951172 0.43818665 1.5923767l0 0c0 1.2437286 -0.6697998 2.2519684 -1.4960632 2.2519684l0 0c-0.82624817 0 -1.4960632 -1.0082397 -1.4960632 -2.2519684z" fill-rule="nonzero"></path><path fill="#000000" d="m231.31036 89.93102l0 0c0 -1.2437286 0.66981506 -2.2519684 1.4960632 -2.2519684l0 0c0.39678955 0 0.77731323 0.23725891 1.0578766 0.65958405c0.28056335 0.42232513 0.43818665 0.9951248 0.43818665 1.5923843l0 0c0 1.2437286 -0.6697998 2.2519684 -1.4960632 2.2519684l0 0c-0.82624817 0 -1.4960632 -1.0082397 -1.4960632 -2.2519684z" fill-rule="nonzero"></path><path stroke="#000000" stroke-width="2.0" stroke-linejoin="round" stroke-linecap="butt" d="m231.31036 89.93102l0 0c0 -1.2437286 0.66981506 -2.2519684 1.4960632 -2.2519684l0 0c0.39678955 0 0.77731323 0.23725891 1.0578766 0.65958405c0.28056335 0.42232513 0.43818665 0.9951248 0.43818665 1.5923843l0 0c0 1.2437286 -0.6697998 2.2519684 -1.4960632 2.2519684l0 0c-0.82624817 0 -1.4960632 -1.0082397 -1.4960632 -2.2519684z" fill-rule="nonzero"></path><path fill="#000000" d="m242.68307 92.85329l0 0c0 -1.2437286 0.6697998 -2.2519684 1.4960632 -2.2519684l0 0c0.3967743 0 0.77731323 0.23725891 1.0578766 0.6595917c0.28056335 0.42232513 0.43818665 0.9951172 0.43818665 1.5923767l0 0c0 1.2437286 -0.66981506 2.2519684 -1.4960632 2.2519684l0 0c-0.8262634 0 -1.4960632 -1.0082397 -1.4960632 -2.2519684z" fill-rule="nonzero"></path><path stroke="#000000" stroke-width="2.0" stroke-linejoin="round" stroke-linecap="butt" d="m242.68307 92.85329l0 0c0 -1.2437286 0.6697998 -2.2519684 1.4960632 -2.2519684l0 0c0.3967743 0 0.77731323 0.23725891 1.0578766 0.6595917c0.28056335 0.42232513 0.43818665 0.9951172 0.43818665 1.5923767l0 0c0 1.2437286 -0.66981506 2.2519684 -1.4960632 2.2519684l0 0c-0.8262634 0 -1.4960632 -1.0082397 -1.4960632 -2.2519684z" fill-rule="nonzero"></path><path fill="#000000" d="m208.43373 96.749916l0 0c0 -1.2437286 0.6697998 -2.2519684 1.4960632 -2.2519684l0 0c0.3967743 0 0.77731323 0.23725891 1.0578766 0.6595917c0.28056335 0.42232513 0.43818665 0.9951172 0.43818665 1.5923767l0 0c0 1.2437286 -0.66981506 2.2519684 -1.4960632 2.2519684l0 0c-0.8262634 0 -1.4960632 -1.0082397 -1.4960632 -2.2519684z" fill-rule="nonzero"></path><path stroke="#000000" stroke-width="2.0" stroke-linejoin="round" stroke-linecap="butt" d="m208.43373 96.749916l0 0c0 -1.2437286 0.6697998 -2.2519684 1.4960632 -2.2519684l0 0c0.3967743 0 0.77731323 0.23725891 1.0578766 0.6595917c0.28056335 0.42232513 0.43818665 0.9951172 0.43818665 1.5923767l0 0c0 1.2437286 -0.66981506 2.2519684 -1.4960632 2.2519684l0 0c-0.8262634 0 -1.4960632 -1.0082397 -1.4960632 -2.2519684z" fill-rule="nonzero"></path><path fill="#000000" d="m222.05315 99.42971l0 0c0 -1.2437286 0.66981506 -2.2519684 1.4960632 -2.2519684l0 0c0.39678955 0 0.77731323 0.23725891 1.0578766 0.65958405c0.28056335 0.42232513 0.43818665 0.9951248 0.43818665 1.5923843l0 0c0 1.2437286 -0.66981506 2.2519684 -1.4960632 2.2519684l0 0c-0.82624817 0 -1.4960632 -1.0082397 -1.4960632 -2.2519684z" fill-rule="nonzero"></path><path stroke="#000000" stroke-width="2.0" stroke-linejoin="round" stroke-linecap="butt" d="m222.05315 99.42971l0 0c0 -1.2437286 0.66981506 -2.2519684 1.4960632 -2.2519684l0 0c0.39678955 0 0.77731323 0.23725891 1.0578766 0.65958405c0.28056335 0.42232513 0.43818665 0.9951248 0.43818665 1.5923843l0 0c0 1.2437286 -0.66981506 2.2519684 -1.4960632 2.2519684l0 0c-0.82624817 0 -1.4960632 -1.0082397 -1.4960632 -2.2519684z" fill-rule="nonzero"></path><path fill="#000000" d="m234.30249 101.85066l0 0c0 -1.2437286 0.66981506 -2.2519684 1.4960632 -2.2519684l0 0c0.39678955 0 0.77731323 0.23725891 1.0578766 0.6595917c0.28056335 0.42232513 0.43818665 0.9951172 0.43818665 1.5923767l0 0c0 1.2437286 -0.66981506 2.2519684 -1.4960632 2.2519684l0 0c-0.82624817 0 -1.4960632 -1.0082397 -1.4960632 -2.2519684z" fill-rule="nonzero"></path><path stroke="#000000" stroke-width="2.0" stroke-linejoin="round" stroke-linecap="butt" d="m234.30249 101.85066l0 0c0 -1.2437286 0.66981506 -2.2519684 1.4960632 -2.2519684l0 0c0.39678955 0 0.77731323 0.23725891 1.0578766 0.6595917c0.28056335 0.42232513 0.43818665 0.9951172 0.43818665 1.5923767l0 0c0 1.2437286 -0.66981506 2.2519684 -1.4960632 2.2519684l0 0c-0.82624817 0 -1.4960632 -1.0082397 -1.4960632 -2.2519684z" fill-rule="nonzero"></path><path fill="#000000" d="m200.29018 104.59244l0 0c0 -1.2437286 0.66981506 -2.2519684 1.4960632 -2.2519684l0 0c0.3967743 0 0.77731323 0.23725891 1.0578766 0.65958405c0.28056335 0.42232513 0.43818665 0.9951248 0.43818665 1.5923843l0 0c0 1.2437286 -0.66981506 2.2519684 -1.4960632 2.2519684l0 0c-0.82624817 0 -1.4960632 -1.0082397 -1.4960632 -2.2519684z" fill-rule="nonzero"></path><path stroke="#000000" stroke-width="2.0" stroke-linejoin="round" stroke-linecap="butt" d="m200.29018 104.59244l0 0c0 -1.2437286 0.66981506 -2.2519684 1.4960632 -2.2519684l0 0c0.3967743 0 0.77731323 0.23725891 1.0578766 0.65958405c0.28056335 0.42232513 0.43818665 0.9951248 0.43818665 1.5923843l0 0c0 1.2437286 -0.66981506 2.2519684 -1.4960632 2.2519684l0 0c-0.82624817 0 -1.4960632 -1.0082397 -1.4960632 -2.2519684z" fill-rule="nonzero"></path><path fill="#000000" d="m214.42848 108.34047l0 0c0 -1.2437286 0.6697998 -2.2519684 1.4960632 -2.2519684l0 0c0.3967743 0 0.777298 0.23725891 1.0578766 0.65958405c0.28056335 0.42232513 0.43818665 0.9951248 0.43818665 1.5923843l0 0c0 1.2437286 -0.66981506 2.2519684 -1.4960632 2.2519684l0 0c-0.8262634 0 -1.4960632 -1.0082397 -1.4960632 -2.2519684z" fill-rule="nonzero"></path><path stroke="#000000" stroke-width="2.0" stroke-linejoin="round" stroke-linecap="butt" d="m214.42848 108.34047l0 0c0 -1.2437286 0.6697998 -2.2519684 1.4960632 -2.2519684l0 0c0.3967743 0 0.777298 0.23725891 1.0578766 0.65958405c0.28056335 0.42232513 0.43818665 0.9951248 0.43818665 1.5923843l0 0c0 1.2437286 -0.66981506 2.2519684 -1.4960632 2.2519684l0 0c-0.8262634 0 -1.4960632 -1.0082397 -1.4960632 -2.2519684z" fill-rule="nonzero"></path><path fill="#000000" d="m226.44423 110.60657l0 0c0 -1.2437286 0.6697998 -2.2519684 1.4960632 -2.2519684l0 0c0.3967743 0 0.77731323 0.23725891 1.0578766 0.6595917c0.28056335 0.42232513 0.43818665 0.9951172 0.43818665 1.5923767l0 0c0 1.2437286 -0.66981506 2.2519684 -1.4960632 2.2519684l0 0c-0.8262634 0 -1.4960632 -1.0082397 -1.4960632 -2.2519684z" fill-rule="nonzero"></path><path stroke="#000000" stroke-width="2.0" stroke-linejoin="round" stroke-linecap="butt" d="m226.44423 110.60657l0 0c0 -1.2437286 0.6697998 -2.2519684 1.4960632 -2.2519684l0 0c0.3967743 0 0.77731323 0.23725891 1.0578766 0.6595917c0.28056335 0.42232513 0.43818665 0.9951172 0.43818665 1.5923767l0 0c0 1.2437286 -0.66981506 2.2519684 -1.4960632 2.2519684l0 0c-0.8262634 0 -1.4960632 -1.0082397 -1.4960632 -2.2519684z" fill-rule="nonzero"></path></g></svg>

